<?xml version="1.0" encoding="utf-8"?>
<!-- Generator: Adobe Illustrator 21.0.2, SVG Export Plug-In . SVG Version: 6.00 Build 0)  -->
<svg version="1.1" id="Layer_1" xmlns="http://www.w3.org/2000/svg" xmlns:xlink="http://www.w3.org/1999/xlink" x="0px" y="0px"
	 viewBox="0 0 30 30" style="enable-background:new 0 0 30 30;" xml:space="preserve">
<style type="text/css">
	.st0{fill:#FFFFFF;}
</style>
<g>
	<g>
		<path class="st0" d="M7,6.6c0-0.4,0-0.8,0-1.2C7,3.9,7.9,3,9.3,3c0.4,0,0.9,0,1.3,0.1c1,0.2,1.7,1.1,1.7,2.2c0,0.4,0,0.9,0,1.3
			c1.8,0,3.6,0,5.4,0c0-0.4,0-0.8,0-1.2c0-1.5,0.9-2.4,2.4-2.4c0.4,0,0.8,0,1.2,0.1c1,0.2,1.7,1,1.7,2c0,0.5,0,1,0,1.5
			c0.6,0,1.1,0,1.6,0c1.3,0,2,0.7,2,2c0,5.8,0,11.6,0,17.4c0,1.4-0.7,2.1-2.1,2.1c-6.4,0-12.7,0-19.1,0c-1.3,0-2-0.7-2-2
			c0-5.8,0-11.6,0-17.5c0-1.2,0.7-1.9,2-1.9C5.9,6.6,6.4,6.6,7,6.6z M10.1,16.9c0,1.5,0,3,0,4.4c1.5,0,2.9,0,4.4,0c0-1.5,0-3,0-4.4
			C13.1,16.9,11.6,16.9,10.1,16.9z M19.9,16.9c-1.5,0-3,0-4.4,0c0,1.5,0,2.9,0,4.4c1.5,0,2.9,0,4.4,0C19.9,19.8,19.9,18.4,19.9,16.9
			z M9.2,16.9c-1.3,0-2.7,0-4,0c0,1.4,0,2.8,0,4.2c0,0.3,0.1,0.3,0.3,0.3c0.8,0,1.5,0,2.3,0c0.5,0,0.9,0,1.4,0
			C9.2,19.8,9.2,18.4,9.2,16.9z M20.8,21.3c1.3,0,2.5,0,3.8,0c0.1,0,0.2-0.2,0.2-0.3c0-1.3,0-2.6,0-3.9c0-0.2-0.1-0.3-0.3-0.3
			c-0.5,0-1,0-1.5,0c-0.7,0-1.5,0-2.2,0C20.8,18.3,20.8,19.8,20.8,21.3z M10.1,22.2c0,1.4,0,2.7,0,4c1.5,0,2.9,0,4.4,0
			c0-1.3,0-2.7,0-4C13.1,22.2,11.6,22.2,10.1,22.2z M15.5,26.2c1.5,0,3,0,4.4,0c0-1.3,0-2.6,0-4c-1.5,0-3,0-4.4,0
			C15.5,23.6,15.5,24.9,15.5,26.2z M19.9,15.9c0-1.4,0-2.7,0-4c-1.5,0-2.9,0-4.4,0c0,1.3,0,2.7,0,4C16.9,15.9,18.4,15.9,19.9,15.9z
			 M10.1,15.9c1.5,0,3,0,4.4,0c0-1.3,0-2.6,0-4c-1.5,0-3,0-4.4,0C10.1,13.3,10.1,14.6,10.1,15.9z M9.2,15.9c0-1.4,0-2.7,0-4
			c-1.3,0-2.7,0-4,0c0,1.3,0,2.7,0,4C6.5,15.9,7.8,15.9,9.2,15.9z M9.2,22.2c-1.4,0-2.7,0-4,0c0,1.3,0,2.6,0,4c1.3,0,2.7,0,4,0
			C9.2,24.9,9.2,23.6,9.2,22.2z M24.8,26.2c0-1.3,0-2.7,0-4c-1.3,0-2.7,0-4,0c0,1.3,0,2.7,0,4C22.2,26.2,23.5,26.2,24.8,26.2z
			 M24.8,12c-1.4,0-2.7,0-4,0c0,1.3,0,2.7,0,4c1.3,0,2.5,0,3.8,0c0.1,0,0.2-0.1,0.2-0.2C24.8,14.5,24.8,13.2,24.8,12z M10.5,7.3
			C10.5,7.3,10.5,7.3,10.5,7.3c0-0.5,0-0.9,0-1.4c0-1.1,0-1.1-1.1-1.1c-0.5,0-0.7,0.1-0.7,0.7c0,1,0,2.1,0,3.1c0,1.2,0,1.2,1.2,1.2
			c0.5,0,0.6-0.1,0.6-0.6C10.5,8.5,10.5,7.9,10.5,7.3z M21.3,7.3c0-0.5,0-0.9,0-1.4c0-1.1,0-1.1-1.1-1.1c-0.5,0-0.7,0.1-0.7,0.7
			c0,1,0,2.1,0,3.1c0,1.1,0,1.2,1.2,1.1c0.5,0,0.6-0.1,0.6-0.6C21.3,8.5,21.3,7.9,21.3,7.3z"/>
	</g>
</g>
</svg>