<?xml version="1.0" encoding="utf-8"?>
<!-- Generator: Adobe Illustrator 21.0.2, SVG Export Plug-In . SVG Version: 6.00 Build 0)  -->
<svg version="1.1" id="Layer_1" xmlns="http://www.w3.org/2000/svg" xmlns:xlink="http://www.w3.org/1999/xlink" x="0px" y="0px"
	 viewBox="0 0 30 30" style="enable-background:new 0 0 30 30;" xml:space="preserve">
<style type="text/css">
	.st0{fill:#FFFFFF;}
</style>
<g>
	<path class="st0" d="M14.5,15.2c1,0,2-0.1,3-0.1c0.5,0,0.7,0.2,0.8,0.6c0.5,1.5,1,3,1.6,4.5c0.1,0.3,0.3,0.5,0.6,0.6
		c0.4,0.1,0.8-0.1,0.9-0.5c0.3-1,0.6-1.9,0.9-2.9c0.2-0.6,0.4-1.2,0.5-1.9c0.1-0.3,0.4-0.5,0.8-0.5c1.6,0,3.2-0.1,4.8-0.1
		c0.5,0,0.9-0.4,0.8-0.9c0-0.2-0.2-0.4-0.4-0.5c-1.3-0.9-2.6-1.8-3.8-2.7c-0.5-0.4-0.6-0.6-0.4-1.2c0.5-1.5,0.9-2.9,1.4-4.4
		c0.1-0.4,0-0.7-0.3-0.9c-0.3-0.2-0.6-0.2-1,0.1c-1.3,1-2.5,1.9-3.8,2.9c-0.4,0.3-0.7,0.3-1.1,0c-1.3-0.9-2.6-1.8-3.9-2.7
		c-0.5-0.3-1.1-0.2-1.2,0.4c0,0.2,0,0.4,0,0.6c0.5,1.5,1,2.9,1.5,4.4c0.2,0.6,0.1,0.8-0.4,1.2c-1.2,0.9-2.4,1.9-3.7,2.8
		c-0.4,0.3-0.5,0.8-0.2,1.1c0.1,0.1,0.3,0.2,0.4,0.3C13.2,15.2,13.8,15.2,14.5,15.2z M11.7,12.9c1.1-0.8,2.1-1.6,3.2-2.5
		c0.4-0.3,0.4-0.4,0.2-0.8c-0.2-0.6-0.4-1.1-0.6-1.7c-0.2-0.5-0.4-0.6-0.9-0.3c-1.7,0.9-3.2,2.1-4.6,3.5c-2.3,2.3-4,5.1-5.4,8
		c-1,2-1.7,4-2.4,6.2c0,0.1,0,0.1-0.1,0.2c0,0.2,0,0.4,0.2,0.5c0.2,0.1,0.4,0.1,0.5,0c0.6-0.4,1.1-0.9,1.7-1.3
		c3-2.1,6.1-3.9,9.6-5.2c1.4-0.5,2.8-0.9,4.3-1.2c0.5-0.1,0.6-0.3,0.4-0.8c-0.1-0.3-0.2-0.7-0.4-1c-0.1-0.3-0.3-0.4-0.6-0.4
		c-1.5,0-2.9,0.1-4.4,0.1c-1,0-1.9-1-1.7-2C11,13.7,11.2,13.3,11.7,12.9z"/>
	<path class="st0" d="M12.4,15.2c0.7,0,1.4,0,2-0.1c1,0,2-0.1,3-0.1c0.5,0,0.7,0.2,0.8,0.6c0.5,1.5,1,3,1.6,4.5
		c0.1,0.3,0.3,0.5,0.6,0.6c0.4,0.1,0.8-0.1,0.9-0.5c0.3-1,0.6-1.9,0.9-2.9c0.2-0.6,0.4-1.2,0.5-1.9c0.1-0.3,0.4-0.5,0.8-0.5
		c1.6,0,3.2-0.1,4.8-0.1c0.5,0,0.9-0.4,0.8-0.9c0-0.2-0.2-0.4-0.4-0.5c-1.3-0.9-2.6-1.8-3.8-2.7c-0.5-0.4-0.6-0.6-0.4-1.2
		c0.5-1.5,0.9-2.9,1.4-4.4c0.1-0.4,0-0.7-0.3-0.9c-0.3-0.2-0.6-0.2-1,0.1c-1.3,1-2.5,1.9-3.8,2.9c-0.4,0.3-0.7,0.3-1.1,0
		c-1.3-0.9-2.6-1.8-3.9-2.7c-0.5-0.3-1.1-0.2-1.2,0.4c0,0.2,0,0.4,0,0.6c0.5,1.5,1,2.9,1.5,4.4c0.2,0.6,0.1,0.8-0.4,1.2
		c-1.2,0.9-2.4,1.9-3.7,2.8c-0.4,0.3-0.5,0.8-0.2,1.1C12.1,15.1,12.3,15.2,12.4,15.2z"/>
	<path class="st0" d="M10.9,14.2c0.1-0.5,0.4-0.9,0.8-1.3c1.1-0.8,2.1-1.6,3.2-2.5c0.4-0.3,0.4-0.4,0.2-0.8
		c-0.2-0.6-0.4-1.1-0.6-1.7c-0.2-0.5-0.4-0.6-0.9-0.3c-1.7,0.9-3.2,2.1-4.6,3.5c-2.3,2.3-4,5.1-5.4,8c-1,2-1.7,4-2.4,6.2
		c0,0.1,0,0.1-0.1,0.2c0,0.2,0,0.4,0.2,0.5c0.2,0.1,0.4,0.1,0.5,0c0.6-0.4,1.1-0.9,1.7-1.3c3-2.1,6.1-3.9,9.6-5.2
		c1.4-0.5,2.8-0.9,4.3-1.2c0.5-0.1,0.6-0.3,0.4-0.8c-0.1-0.3-0.2-0.7-0.4-1c-0.1-0.3-0.3-0.4-0.6-0.4c-1.5,0-2.9,0.1-4.4,0.1
		C11.6,16.2,10.7,15.2,10.9,14.2z"/>
</g>
</svg>
=======
<?xml version="1.0" encoding="utf-8"?>
<!-- Generator: Adobe Illustrator 21.0.2, SVG Export Plug-In . SVG Version: 6.00 Build 0)  -->
<svg version="1.1" id="Layer_1" xmlns="http://www.w3.org/2000/svg" xmlns:xlink="http://www.w3.org/1999/xlink" x="0px" y="0px"
	 viewBox="0 0 30 30" style="enable-background:new 0 0 30 30;" xml:space="preserve">
<style type="text/css">
	.st0{fill:#FFFFFF;}
</style>
<g>
	<path class="st0" d="M14.5,15.2c1,0,2-0.1,3-0.1c0.5,0,0.7,0.2,0.8,0.6c0.5,1.5,1,3,1.6,4.5c0.1,0.3,0.3,0.5,0.6,0.6
		c0.4,0.1,0.8-0.1,0.9-0.5c0.3-1,0.6-1.9,0.9-2.9c0.2-0.6,0.4-1.2,0.5-1.9c0.1-0.3,0.4-0.5,0.8-0.5c1.6,0,3.2-0.1,4.8-0.1
		c0.5,0,0.9-0.4,0.8-0.9c0-0.2-0.2-0.4-0.4-0.5c-1.3-0.9-2.6-1.8-3.8-2.7c-0.5-0.4-0.6-0.6-0.4-1.2c0.5-1.5,0.9-2.9,1.4-4.4
		c0.1-0.4,0-0.7-0.3-0.9c-0.3-0.2-0.6-0.2-1,0.1c-1.3,1-2.5,1.9-3.8,2.9c-0.4,0.3-0.7,0.3-1.1,0c-1.3-0.9-2.6-1.8-3.9-2.7
		c-0.5-0.3-1.1-0.2-1.2,0.4c0,0.2,0,0.4,0,0.6c0.5,1.5,1,2.9,1.5,4.4c0.2,0.6,0.1,0.8-0.4,1.2c-1.2,0.9-2.4,1.9-3.7,2.8
		c-0.4,0.3-0.5,0.8-0.2,1.1c0.1,0.1,0.3,0.2,0.4,0.3C13.2,15.2,13.8,15.2,14.5,15.2z M11.7,12.9c1.1-0.8,2.1-1.6,3.2-2.5
		c0.4-0.3,0.4-0.4,0.2-0.8c-0.2-0.6-0.4-1.1-0.6-1.7c-0.2-0.5-0.4-0.6-0.9-0.3c-1.7,0.9-3.2,2.1-4.6,3.5c-2.3,2.3-4,5.1-5.4,8
		c-1,2-1.7,4-2.4,6.2c0,0.1,0,0.1-0.1,0.2c0,0.2,0,0.4,0.2,0.5c0.2,0.1,0.4,0.1,0.5,0c0.6-0.4,1.1-0.9,1.7-1.3
		c3-2.1,6.1-3.9,9.6-5.2c1.4-0.5,2.8-0.9,4.3-1.2c0.5-0.1,0.6-0.3,0.4-0.8c-0.1-0.3-0.2-0.7-0.4-1c-0.1-0.3-0.3-0.4-0.6-0.4
		c-1.5,0-2.9,0.1-4.4,0.1c-1,0-1.9-1-1.7-2C11,13.7,11.2,13.3,11.7,12.9z"/>
	<path class="st0" d="M12.4,15.2c0.7,0,1.4,0,2-0.1c1,0,2-0.1,3-0.1c0.5,0,0.7,0.2,0.8,0.6c0.5,1.5,1,3,1.6,4.5
		c0.1,0.3,0.3,0.5,0.6,0.6c0.4,0.1,0.8-0.1,0.9-0.5c0.3-1,0.6-1.9,0.9-2.9c0.2-0.6,0.4-1.2,0.5-1.9c0.1-0.3,0.4-0.5,0.8-0.5
		c1.6,0,3.2-0.1,4.8-0.1c0.5,0,0.9-0.4,0.8-0.9c0-0.2-0.2-0.4-0.4-0.5c-1.3-0.9-2.6-1.8-3.8-2.7c-0.5-0.4-0.6-0.6-0.4-1.2
		c0.5-1.5,0.9-2.9,1.4-4.4c0.1-0.4,0-0.7-0.3-0.9c-0.3-0.2-0.6-0.2-1,0.1c-1.3,1-2.5,1.9-3.8,2.9c-0.4,0.3-0.7,0.3-1.1,0
		c-1.3-0.9-2.6-1.8-3.9-2.7c-0.5-0.3-1.1-0.2-1.2,0.4c0,0.2,0,0.4,0,0.6c0.5,1.5,1,2.9,1.5,4.4c0.2,0.6,0.1,0.8-0.4,1.2
		c-1.2,0.9-2.4,1.9-3.7,2.8c-0.4,0.3-0.5,0.8-0.2,1.1C12.1,15.1,12.3,15.2,12.4,15.2z"/>
	<path class="st0" d="M10.9,14.2c0.1-0.5,0.4-0.9,0.8-1.3c1.1-0.8,2.1-1.6,3.2-2.5c0.4-0.3,0.4-0.4,0.2-0.8
		c-0.2-0.6-0.4-1.1-0.6-1.7c-0.2-0.5-0.4-0.6-0.9-0.3c-1.7,0.9-3.2,2.1-4.6,3.5c-2.3,2.3-4,5.1-5.4,8c-1,2-1.7,4-2.4,6.2
		c0,0.1,0,0.1-0.1,0.2c0,0.2,0,0.4,0.2,0.5c0.2,0.1,0.4,0.1,0.5,0c0.6-0.4,1.1-0.9,1.7-1.3c3-2.1,6.1-3.9,9.6-5.2
		c1.4-0.5,2.8-0.9,4.3-1.2c0.5-0.1,0.6-0.3,0.4-0.8c-0.1-0.3-0.2-0.7-0.4-1c-0.1-0.3-0.3-0.4-0.6-0.4c-1.5,0-2.9,0.1-4.4,0.1
		C11.6,16.2,10.7,15.2,10.9,14.2z"/>
</g>
</svg>
