<?xml version="1.0" encoding="utf-8"?>
<!-- Generator: Adobe Illustrator 21.0.2, SVG Export Plug-In . SVG Version: 6.00 Build 0)  -->
<svg version="1.1" id="Layer_1" xmlns="http://www.w3.org/2000/svg" xmlns:xlink="http://www.w3.org/1999/xlink" x="0px" y="0px"
	 viewBox="0 0 30 30" style="enable-background:new 0 0 30 30;" xml:space="preserve">
<style type="text/css">
	.st0{fill:#FFFFFF;}
</style>
<g>
	<g>
		<path class="st0" d="M2.4,7.6c0,2.4,0.6,4.9,1.5,7.3c3,7.5,10.6,12.7,18.7,12.7c0.7,0,1.4-0.2,1.9-0.8c0.4-0.4,0.8-0.8,1.2-1.2
			c1.8-1.6,1-4.5-1.4-5.3c-1-0.3-2-0.5-2.9-0.8c-0.9-0.2-1.7-0.1-2.4,0.3c-0.5,0.3-0.9,0.7-1.2,1.1c-0.3,0.3-0.6,0.4-0.9,0.2
			c-3.7-1.3-6.2-3.7-7.7-7.3c-0.3-0.8-0.3-1.4,0.4-1.9c0.2-0.1,0.3-0.3,0.4-0.4c0.6-0.7,0.9-1.6,0.7-2.5c-0.3-1.2-0.5-2.4-1-3.5
			C8.8,3.3,5.9,2.7,4.4,4.4C4.1,4.8,3.7,5.1,3.4,5.4C2.6,6,2.3,6.8,2.4,7.6z M23.5,14.6c0.2-4.6-4.2-8.3-8.1-8c0,0.4,0,0.7,0,1.1
			c0,0.1,0,0.3,0,0.4c3.9,0.4,6.1,2.6,6.5,6.5C22.5,14.6,23,14.6,23.5,14.6z M18.6,14.6c0-1.8-1.6-3.4-3.2-3.1c0,0.4,0,0.8,0,1.1
			c0,0.2,0.2,0.4,0.3,0.4c0.7,0.2,1,0.6,1.2,1.2c0,0.1,0.2,0.3,0.4,0.3C17.8,14.6,18.2,14.6,18.6,14.6z"/>
	</g>
	<g>
		<path class="st0" d="M16.5,1.6c1,0.2,2,0.3,3,0.7c5.1,1.8,8.1,5.5,8.8,10.9c0,0.1,0.1,0.2,0.1,0.3c0,0.3,0,0.7,0,1
			c-0.4,0-0.8,0-1.2,0c-0.1,0-0.3,0-0.4,0c-0.1-3.1-1.2-5.8-3.4-8c-2.2-2.2-4.9-3.3-8-3.4c0-0.5-0.1-1.1-0.1-1.6
			C15.7,1.6,16.1,1.6,16.5,1.6z"/>
	</g>
	<g>
		<path class="st0" d="M2.4,7.6C2.3,6.8,2.6,6,3.4,5.4c0.4-0.3,0.7-0.7,1.1-1.1c1.4-1.7,4.4-1.1,5.2,1.2c0.4,1.1,0.7,2.3,1,3.5
			c0.2,0.9-0.1,1.8-0.7,2.5c-0.1,0.1-0.3,0.3-0.4,0.4c-0.8,0.5-0.7,1.1-0.4,1.9c1.5,3.6,4,6,7.7,7.3c0.4,0.1,0.7,0.1,0.9-0.2
			c0.4-0.4,0.8-0.8,1.2-1.1c0.7-0.5,1.6-0.6,2.4-0.3c1,0.3,2,0.5,2.9,0.8c2.4,0.7,3.2,3.7,1.4,5.3c-0.4,0.4-0.8,0.8-1.2,1.2
			c-0.5,0.6-1.2,0.8-1.9,0.8c-8,0-15.7-5.2-18.7-12.7C3,12.6,2.4,10,2.4,7.6z"/>
	</g>
	<g>
		<path class="st0" d="M23.5,14.6c-0.5,0-1,0-1.5,0c-0.4-3.9-2.6-6.1-6.5-6.5c0-0.1,0-0.3,0-0.4c0-0.4,0-0.7,0-1.1
			C19.3,6.2,23.6,10,23.5,14.6z"/>
	</g>
	<g>
		<path class="st0" d="M18.6,14.6c-0.4,0-0.8,0-1.2,0c-0.1,0-0.3-0.2-0.4-0.3c-0.2-0.6-0.6-1-1.2-1.2c-0.1,0-0.3-0.3-0.3-0.4
			c0-0.4,0-0.8,0-1.1C17,11.2,18.6,12.8,18.6,14.6z"/>
	</g>
</g>
</svg>
